<svg width="30" height="31" viewBox="0 0 30 31" fill="none" xmlns="http://www.w3.org/2000/svg">
<path fill-rule="evenodd" clip-rule="evenodd" d="M4.88582 1.36086C5.75396 0.48929 6.92889 0 8.15366 0C9.37843 0 10.5534 0.48929 11.4215 1.36086L11.4238 1.3632L17.2656 7.25652C17.7961 7.79174 17.7961 8.65952 17.2656 9.19475C16.735 9.72998 15.8748 9.72998 15.3443 9.19475L9.50487 3.30378C9.50456 3.30346 9.50519 3.30409 9.50487 3.30378C9.146 2.94398 8.65964 2.74108 8.15366 2.74108C7.64768 2.74108 7.16228 2.94303 6.80341 3.30281C6.80308 3.30313 6.80276 3.30345 6.80244 3.30378L3.27487 6.86249C3.27455 6.86281 3.27423 6.86314 3.27391 6.86346C2.91728 7.2255 2.71709 7.71519 2.71709 8.22563C2.71709 8.73609 2.91729 9.22579 3.27393 9.58783C3.27425 9.58814 3.27362 9.58751 3.27393 9.58783L9.11429 15.4797C9.64484 16.015 9.64484 16.8827 9.11429 17.418C8.58375 17.9532 7.72357 17.9532 7.19302 17.418L1.35128 11.5247L1.34895 11.5223C0.485009 10.6465 0 9.46121 0 8.22563C0 6.99005 0.485009 5.80475 1.34895 4.92895L1.35127 4.9266L4.88582 1.36086Z" fill="white"/>
<path fill-rule="evenodd" clip-rule="evenodd" d="M13.1899 3.14489C13.7205 3.68012 13.7205 4.5479 13.1899 5.08313L10.4728 7.8242C9.94229 8.35943 9.08211 8.35943 8.55156 7.8242C8.02102 7.28897 8.02102 6.4212 8.55156 5.88597L11.2687 3.14489C11.7992 2.60967 12.6594 2.60967 13.1899 3.14489Z" fill="white"/>
<path fill-rule="evenodd" clip-rule="evenodd" d="M26.7754 16.8503C27.306 17.3855 27.306 18.2533 26.7754 18.7885L24.0583 21.5296C23.5278 22.0648 22.6676 22.0648 22.137 21.5296C21.6065 20.9944 21.6065 20.1266 22.137 19.5914L24.8541 16.8503C25.3847 16.3151 26.2449 16.3151 26.7754 16.8503Z" fill="white"/>
<path fill-rule="evenodd" clip-rule="evenodd" d="M20.7785 12.7387C21.309 12.2034 22.1692 12.2034 22.6998 12.7387L28.5415 18.632C30.3491 20.4555 30.3491 23.4065 28.5415 25.23L25.0093 28.7934C23.2017 30.617 20.2765 30.617 18.469 28.7934L12.6272 22.9001C12.0967 22.3649 12.0967 21.4971 12.6272 20.9619C13.1578 20.4267 14.0179 20.4267 14.5485 20.9619L20.3902 26.8552C21.1367 27.6083 22.3415 27.6083 23.088 26.8552L26.6202 23.2918C27.3667 22.5387 27.3667 21.3233 26.6202 20.5702L20.7785 14.6769C20.2479 14.1417 20.2479 13.2739 20.7785 12.7387Z" fill="white"/>
<path fill-rule="evenodd" clip-rule="evenodd" d="M21.0339 1.53433C22.007 0.552904 23.3267 0.00164175 24.7027 0.00181584C26.0786 0.00198992 27.3982 0.553586 28.371 1.53526C29.3439 2.51693 29.8903 3.84827 29.8901 5.23639C29.89 6.62452 29.3432 7.95571 28.3701 8.93714L10.2378 27.2323L10.2362 27.2339C9.76377 27.7089 9.18299 28.0598 8.5448 28.2556L2.62682 30.066C2.27451 30.1728 1.90011 30.1815 1.54335 30.091C1.18658 30.0005 0.860741 29.8143 0.600401 29.5521C0.340065 29.2898 0.154944 28.9614 0.0646786 28.6017C-0.0255871 28.2419 -0.0176323 27.8642 0.0877017 27.5086L0.0893886 27.5029L1.88403 21.5383L1.88514 21.5347C2.08085 20.8907 2.43036 20.3052 2.90293 19.8295C2.90331 19.8291 2.90368 19.8287 2.90405 19.8283L21.0339 1.53433ZM22.9549 3.47281C22.9549 3.47288 22.955 3.47273 22.9549 3.47281L4.82402 21.7679L4.8225 21.7694C4.66517 21.9277 4.54872 22.1224 4.48334 22.3366C4.48318 22.3371 4.48303 22.3377 4.48287 22.3382L3.05935 27.0694L7.75417 25.6331C7.96647 25.568 8.15971 25.4514 8.31701 25.2935C8.31733 25.2932 8.3167 25.2938 8.31701 25.2935L26.4489 6.99886C26.9123 6.53142 27.173 5.89719 27.173 5.23605C27.1731 4.57491 26.9129 3.94081 26.4495 3.47325C25.9862 3.00569 25.3577 2.74297 24.7023 2.74289C24.0471 2.74281 23.4184 3.00551 22.9549 3.47281Z" fill="white"/>
<path fill-rule="evenodd" clip-rule="evenodd" d="M18.0614 4.51543C18.592 3.98021 19.4522 3.98021 19.9827 4.51543L25.4169 9.99759C25.9474 10.5328 25.9474 11.4006 25.4169 11.9358C24.8863 12.471 24.0261 12.471 23.4956 11.9358L18.0614 6.45367C17.5309 5.91844 17.5309 5.05066 18.0614 4.51543Z" fill="white"/>
</svg>
